<?xml version="1.0"?>
<svg xmlns="http://www.w3.org/2000/svg" version="1.1" viewBox="0 0 574.8 118.6" width="574.8" height="118.6">
  <g>
    <polygon fill="#141418" points="89.2 11.3 36.1 84.5 142.3 84.5 89.2 11.3"></polygon>
    <polygon fill="#141418" points="88.9 11.3 35.8 84.5 72.8 84.5 88.9 11.3"></polygon>
    <g>
      <path fill="#141418" d="M1.8,69s0,0,0,0c-.8,0-2-1.1-1.8-2.4.2-1.3,1.8-2.4,2.7-2.3l82.5,5.5-.9,4.8L1.8,69Z"></path>
      <path fill="#141418" d="M2.1,57.2c-.9-.1-2.1-1.5-1.8-2.8.3-1.3,2-2.1,2.9-1.9l82.8,13.2-.9,4.8L2.1,57.2Z"></path>
      <path fill="#141418" d="M2.9,43.8c-.9-.2-2.1-1.7-1.8-2.9.4-1.3,2.2-2,3.1-1.7l82.6,22.5-1,4.8L2.9,43.8Z"></path>
      <path fill="#141418" d="M4.5,26c-.8-.4-1.9-1.8-1.5-3.1.4-1.3,2.3-1.9,3.1-1.5l81.3,35.9-1,4.9L4.5,26Z"></path>
      <path fill="#141418" d="M5.7,7.5c-.8-.5-1.7-2.1-1.1-3.3.5-1.2,2.3-1.6,3.1-1.1l80.6,50.3-.9,5.1L5.7,7.5Z"></path>
    </g>
    <line fill="none" stroke="#141418" stroke-width="5" stroke-linecap="round" x1="98.6" y1="68.8" x2="171.9" y2="68.8"></line>
  </g>
  <g>
    <path fill="#141418" d="M217.9,87.3c-6.2,0-11.7-1.1-16.4-3.3-4.7-2.2-8.4-5.3-11-9.4-2.6-4.1-3.9-8.8-3.9-14.4V13.6h19.7v44.9c0,2.3.5,4.3,1.5,6,1,1.7,2.4,3.1,4.1,4.1,1.7,1,3.7,1.5,6,1.5s4.3-.5,6.1-1.5,3.1-2.4,4.2-4.1c1-1.7,1.5-3.8,1.5-6V13.6h19.7v46.6c0,5.5-1.3,10.3-4,14.4s-6.3,7.2-11,9.4c-4.7,2.2-10.2,3.3-16.5,3.3Z"></path>
    <path fill="#141418" d="M278.4,13.6v72.8h-19.7V13.6h19.7Z"></path>
    <path fill="#141418" d="M287.8,86.4V13.6h31.3c5.4,0,10.1,1.1,14.2,3.2,4.1,2.1,7.2,5.1,9.5,9,2.3,3.9,3.4,8.4,3.4,13.6s-1.2,9.7-3.5,13.5c-2.3,3.8-5.6,6.7-9.7,8.8-4.2,2.1-9,3.1-14.6,3.1h-18.8v-15.3h14.7c2.3,0,4.3-.4,6-1.2s2.9-2,3.8-3.5c.9-1.5,1.3-3.3,1.3-5.3s-.4-3.9-1.3-5.4c-.9-1.5-2.1-2.6-3.8-3.4s-3.7-1.2-6-1.2h-6.9v56.9h-19.7Z"></path>
    <path fill="#141418" d="M353.7,86.4V31.8h19v10.4h.6c1-3.9,2.5-6.7,4.7-8.5,2.2-1.8,4.7-2.7,7.6-2.7s1.7,0,2.5.2c.8.1,1.7.3,2.4.6v16.7c-1-.4-2.2-.6-3.6-.8s-2.6-.2-3.6-.2c-1.9,0-3.6.4-5.2,1.3-1.5.9-2.7,2.1-3.6,3.6-.9,1.5-1.3,3.4-1.3,5.4v28.4h-19.6Z"></path>
    <path fill="#141418" d="M397.1,86.4V31.8h19.6v54.6h-19.6ZM406.8,26.2c-2.7,0-4.9-.9-6.8-2.6-1.9-1.8-2.8-3.9-2.8-6.3s.9-4.6,2.8-6.4c1.9-1.7,4.2-2.6,6.8-2.6s4.9.9,6.8,2.6c1.9,1.7,2.8,3.9,2.8,6.4s-.9,4.6-2.8,6.3c-1.9,1.8-4.2,2.6-6.8,2.6Z"></path>
    <path fill="#141418" d="M451,87.4c-4.9,0-9.3-.7-13.1-2.1-3.8-1.4-6.9-3.4-9.2-6-2.4-2.6-3.8-5.7-4.5-9.3l18.2-2.6c.7,2.1,1.7,3.8,3.2,5s3.6,1.7,6.3,1.7,3.4-.3,4.5-.9,1.6-1.4,1.6-2.5-.5-1.9-1.5-2.5c-1-.6-2.6-1.1-4.7-1.5l-9.7-1.8c-5.5-1-9.7-2.9-12.5-5.5-2.8-2.7-4.2-6.2-4.2-10.5s1-7,3.1-9.7c2-2.6,4.9-4.6,8.7-6,3.8-1.4,8.2-2.1,13.5-2.1s9,.6,12.6,1.9c3.6,1.3,6.5,3.1,8.7,5.4s3.6,5.2,4.1,8.5l-17.3,2.5c-.4-1.8-1.4-3.1-2.8-3.9-1.4-.8-3.1-1.2-5-1.2s-3.1.3-4.3.9c-1.2.6-1.8,1.5-1.8,2.6s.3,1.6,1,2.3c.7.7,2.1,1.3,4.1,1.6l11.1,2c5.6,1,9.7,2.7,12.5,5.1,2.8,2.4,4.1,5.6,4.1,9.7s-1.2,7.3-3.5,10.1c-2.3,2.8-5.5,5-9.5,6.6-4,1.5-8.7,2.3-13.9,2.3Z"></path>
    <path fill="#141418" d="M485.4,86.4V31.8h17.9l1.3,14.7h-1.4c.9-3.7,2.2-6.7,3.9-9,1.7-2.3,3.7-3.9,5.9-4.9,2.3-1,4.6-1.5,7.2-1.5,3.9,0,7,1.3,9.4,3.8,2.4,2.5,4.3,6.9,5.8,13.2h-2.1c.9-4.2,2.4-7.5,4.3-10s4.2-4.3,6.8-5.4c2.6-1.1,5.2-1.6,7.9-1.6s6.5.8,9.2,2.3c2.6,1.5,4.7,3.7,6.2,6.4,1.5,2.8,2.2,6,2.2,9.7v36.8h-19.6v-31.8c0-2.4-.6-4.2-1.8-5.6-1.2-1.4-2.8-2-4.8-2s-2.5.3-3.5.9c-1,.6-1.8,1.5-2.3,2.6-.5,1.1-.8,2.5-.8,4.1v31.8h-18.8v-31.8c0-2.4-.6-4.2-1.8-5.6-1.2-1.4-2.8-2-4.8-2s-2.5.3-3.5.9c-1,.6-1.7,1.5-2.2,2.6-.5,1.1-.8,2.5-.8,4.1v31.8h-19.6Z"></path>
  </g>
</svg>